<?xml version="1.0" encoding="UTF-8"?>
<svg width="24px" height="22px" viewBox="0 0 24 22" version="1.1" xmlns="http://www.w3.org/2000/svg" xmlns:xlink="http://www.w3.org/1999/xlink">
    <title>54250831-E2F9-4DE5-ABBC-575EF965B3E7</title>
    <defs>
        <filter id="filter-1">
            <feColorMatrix in="SourceGraphic" type="matrix" values="0 0 0 0 1.000000 0 0 0 0 1.000000 0 0 0 0 1.000000 0 0 0 1.000000 0"></feColorMatrix>
        </filter>
        <polygon id="path-2" points="-1.13335267e-16 0 23.3232924 0 23.3232924 20.9416667 -1.13335267e-16 20.9416667"></polygon>
    </defs>
    <g id="F&amp;B-UI:-Park-page" stroke="currentColor" stroke-width="1" fill="currentColor" fill-rule="evenodd">
        <g id="Park-venues-1" transform="translate(-57.000000, -513.000000)">
            <g id="Group" transform="translate(0.000000, -0.500000)">
                <g id="Side-nav---list-item-open" transform="translate(0.000000, 476.500000)">
                    <g id="icon/inform/accommodation" transform="translate(55.000000, 34.000000)" filter="url(#filter-1)">
                        <g transform="translate(2.333333, 3.500000)" id="Group-3">
                            <mask id="mask-3" fill="white">
                                <use xlink:href="#path-2"></use>
                            </mask>
                            <g id="Clip-2"></g>
                            <path d="M3.56316246,9.56666667 C2.76866246,9.56666667 2.32999579,9.044 2.21449579,8.88416667 C1.84816246,8.45133333 1.71399579,7.84816667 1.85632912,7.24733333 L3.11632912,1.8095 L6.03182912,1.8095 L5.29916246,7.94616667 C5.18599579,8.87016667 4.43932912,9.56666667 3.56316246,9.56666667 L3.56316246,9.56666667 Z M8.92049579,9.56666667 C8.44332912,9.56666667 7.98832912,9.359 7.64182912,8.98333333 C7.28366246,8.56916667 7.11449579,8.022 7.17166246,7.476 L7.17166246,7.47016667 L7.85999579,1.8095 L10.7544958,1.8095 L10.7544958,7.70933333 C10.7544958,8.75116667 9.94949579,9.56666667 8.92049579,9.56666667 L8.92049579,9.56666667 Z M14.3128291,9.56666667 C13.3479958,9.56666667 12.5628291,8.73366667 12.5628291,7.70933333 L12.5628291,1.8095 L15.4573291,1.8095 L16.1328291,7.47133333 C16.2028291,8.0185 16.0336625,8.57033333 15.6673291,8.97983333 C15.3429958,9.36133333 14.8739958,9.56666667 14.3128291,9.56666667 L14.3128291,9.56666667 Z M19.7541625,9.56666667 C18.8639958,9.56666667 18.1161625,8.869 18.0169958,7.94266667 L17.2854958,1.81066667 L20.1519958,1.7955 L21.4609958,7.24616667 C21.5998291,7.83066667 21.4714958,8.4315 21.1074958,8.8935 C20.9126625,9.14433333 20.4763291,9.56666667 19.7541625,9.56666667 L19.7541625,9.56666667 Z M20.3328291,19.1333333 L2.99616246,19.1333333 L2.99616246,11.3026667 L3.43832912,11.3586667 C3.47916246,11.3668333 3.51882912,11.375 3.56316246,11.375 C4.49182912,11.375 5.36916246,11.0016667 6.03416246,10.3261667 L6.23949579,10.1161667 L6.44832912,10.3238333 C7.13549579,11.011 8.01866246,11.375 9.00449579,11.375 C9.91799579,11.375 10.7918291,11.0086667 11.4661625,10.346 L11.6691625,10.1465 L11.8733291,10.3448333 C12.5593291,11.0086667 13.4599958,11.375 14.4084958,11.375 C15.3266625,11.375 16.2028291,11.0016667 16.8818291,10.3238333 L17.0894958,10.1161667 L17.2959958,10.3261667 C17.9598291,11.0016667 18.8371625,11.375 19.7658291,11.375 C19.8101625,11.375 19.8498291,11.3668333 19.8929958,11.3586667 L20.3328291,11.3015 L20.3328291,19.1333333 Z M3.34732912,-4.14483263e-15 C2.39766246,-4.14483263e-15 1.58099579,0.655666667 1.35932912,1.59366667 L0.10399579,6.82033333 C-0.16200421,7.95083333 0.0876624562,9.11633333 0.791162456,10.0158333 C0.844829123,10.0881667 0.903162456,10.1418333 0.960329123,10.1955 C1.01282912,10.2445 1.06532912,10.2946667 1.11316246,10.3483333 L1.18782912,10.4311667 L1.18782912,18.8416667 C1.18782912,19.999 2.13049579,20.9416667 3.28782912,20.9416667 L20.0294958,20.9416667 C21.1868291,20.9416667 22.1294958,19.999 22.1294958,18.8416667 L22.1294958,10.4218333 L22.3336625,10.2223333 C22.4024958,10.1593333 22.4724958,10.0951667 22.5273291,10.0263333 C23.2389958,9.11516667 23.4898291,7.94616667 23.2133291,6.8215 L23.2133291,6.82033333 L21.9579958,1.59483333 C21.7293291,0.656833333 20.9056625,-4.14483263e-15 19.9571625,-4.14483263e-15 L3.34732912,-4.14483263e-15 Z" id="Fill-1" fill="#067CC0" mask="url(#mask-3)"></path>
                        </g>
                    </g>
                </g>
            </g>
        </g>
    </g>
</svg>